<svg width="551" height="80" viewBox="0 0 551 80" fill="none" xmlns="http://www.w3.org/2000/svg">
<path d="M93.8512 17.6219H102.344V63.3544H93.8512V17.6219Z" fill="#173134"/>
<path d="M131.766 28.075C136.165 28.075 139.693 29.3599 142.35 31.9296C145.006 34.4994 146.335 38.3104 146.335 43.3628V63.3544H138.168V44.4081C138.168 41.3592 137.45 39.0726 136.012 37.5482C134.575 35.9802 132.528 35.1962 129.871 35.1962C126.866 35.1962 124.492 36.1109 122.75 37.9402C121.008 39.7259 120.137 42.3175 120.137 45.7147V63.3544H111.97V28.467H119.745V32.9749C121.095 31.3634 122.794 30.1439 124.841 29.3163C126.888 28.4888 129.196 28.075 131.766 28.075Z" fill="#173134"/>
<path d="M165.514 63.8117C162.683 63.8117 159.918 63.4415 157.217 62.7011C154.517 61.9607 152.361 61.0242 150.749 59.8918L153.885 53.6853C155.453 54.7306 157.326 55.5799 159.504 56.2332C161.725 56.843 163.903 57.1479 166.037 57.1479C170.915 57.1479 173.354 55.863 173.354 53.2933C173.354 52.0737 172.723 51.2244 171.46 50.7453C170.24 50.2662 168.258 49.8089 165.514 49.3733C162.64 48.9378 160.288 48.4369 158.459 47.8707C156.673 47.3045 155.105 46.3245 153.755 44.9307C152.448 43.4934 151.795 41.5117 151.795 38.9855C151.795 35.6753 153.167 33.0403 155.911 31.0803C158.698 29.0768 162.444 28.075 167.148 28.075C169.543 28.075 171.939 28.3581 174.334 28.9244C176.73 29.447 178.69 30.1657 180.214 31.0803L177.078 37.2869C174.117 35.5447 170.785 34.6736 167.082 34.6736C164.687 34.6736 162.858 35.0438 161.595 35.7842C160.375 36.4811 159.765 37.4175 159.765 38.5935C159.765 39.9002 160.419 40.8366 161.725 41.4028C163.075 41.9255 165.144 42.4263 167.932 42.9054C170.719 43.341 173.006 43.8419 174.792 44.4081C176.577 44.9743 178.102 45.9325 179.365 47.2827C180.672 48.6329 181.325 50.5493 181.325 53.0319C181.325 56.2985 179.909 58.9118 177.078 60.8718C174.247 62.8318 170.393 63.8117 165.514 63.8117Z" fill="#173134"/>
<path d="M186.398 28.467H194.564V63.3544H186.398V28.467ZM190.514 22.7178C189.033 22.7178 187.792 22.2605 186.79 21.3458C185.788 20.3876 185.287 19.2116 185.287 17.8179C185.287 16.4241 185.788 15.2699 186.79 14.3553C187.792 13.3971 189.033 12.918 190.514 12.918C191.995 12.918 193.236 13.3753 194.238 14.2899C195.239 15.161 195.74 16.2717 195.74 17.6219C195.74 19.0592 195.239 20.2787 194.238 21.2805C193.279 22.2387 192.038 22.7178 190.514 22.7178Z" fill="#173134"/>
<path d="M237.949 28.467V58.0625C237.949 70.345 231.677 76.4862 219.133 76.4862C215.78 76.4862 212.6 76.0506 209.595 75.1795C206.59 74.352 204.107 73.1325 202.147 71.5209L205.806 65.3797C207.33 66.6428 209.246 67.6446 211.555 68.385C213.907 69.169 216.28 69.561 218.676 69.561C222.509 69.561 225.318 68.6899 227.104 66.9477C228.89 65.2055 229.782 62.5487 229.782 58.9772V57.1479C228.389 58.6723 226.69 59.8265 224.687 60.6105C222.683 61.3944 220.484 61.7864 218.088 61.7864C214.778 61.7864 211.773 61.0896 209.072 59.6958C206.415 58.2585 204.303 56.255 202.735 53.6853C201.211 51.1155 200.448 48.1756 200.448 44.8654C200.448 41.5552 201.211 38.6371 202.735 36.1109C204.303 33.5412 206.415 31.5594 209.072 30.1657C211.773 28.7719 214.778 28.075 218.088 28.075C220.614 28.075 222.901 28.4888 224.948 29.3163C227.039 30.1439 228.781 31.407 230.174 33.1056V28.467H237.949ZM219.329 54.8612C222.422 54.8612 224.948 53.9466 226.908 52.1173C228.911 50.2444 229.913 47.8271 229.913 44.8654C229.913 41.9472 228.911 39.5735 226.908 37.7442C224.948 35.9149 222.422 35.0002 219.329 35.0002C216.193 35.0002 213.624 35.9149 211.62 37.7442C209.66 39.5735 208.68 41.9472 208.68 44.8654C208.68 47.8271 209.66 50.2444 211.62 52.1173C213.624 53.9466 216.193 54.8612 219.329 54.8612Z" fill="#173134"/>
<path d="M266.521 28.075C270.92 28.075 274.448 29.3599 277.105 31.9296C279.762 34.4994 281.09 38.3104 281.09 43.3628V63.3544H272.924V44.4081C272.924 41.3592 272.205 39.0726 270.768 37.5482C269.33 35.9802 267.283 35.1962 264.626 35.1962C261.621 35.1962 259.247 36.1109 257.505 37.9402C255.763 39.7259 254.892 42.3175 254.892 45.7147V63.3544H246.725V14.8779H254.892V32.5176C256.242 31.0803 257.897 29.9914 259.857 29.251C261.861 28.467 264.082 28.075 266.521 28.075Z" fill="#173134"/>
<path d="M310.462 61.4598C309.503 62.2438 308.327 62.8318 306.934 63.2238C305.583 63.6157 304.146 63.8117 302.622 63.8117C298.789 63.8117 295.827 62.81 293.737 60.8065C291.646 58.8029 290.601 55.8848 290.601 52.0519V35.2616H284.851V28.7284H290.601V20.7578H298.767V28.7284H308.11V35.2616H298.767V51.8559C298.767 53.5546 299.181 54.8612 300.008 55.7759C300.836 56.647 302.034 57.0825 303.602 57.0825C305.431 57.0825 306.955 56.6034 308.175 55.6452L310.462 61.4598Z" fill="#173134"/>
<path d="M380.902 17.6219V63.3544H376.264V26.7684L358.298 57.5399H356.011L338.045 26.9644V63.3544H333.406V17.6219H337.391L357.252 51.5293L376.917 17.6219H380.902Z" fill="#173134"/>
<path d="M406.91 63.6811C403.6 63.6811 400.616 62.9406 397.959 61.4598C395.302 59.9354 393.212 57.8447 391.687 55.1879C390.163 52.5311 389.401 49.5258 389.401 46.1721C389.401 42.8183 390.163 39.8131 391.687 37.1562C393.212 34.4994 395.302 32.4305 397.959 30.9497C400.616 29.4688 403.6 28.7284 406.91 28.7284C410.22 28.7284 413.203 29.4688 415.86 30.9497C418.517 32.4305 420.586 34.4994 422.067 37.1562C423.591 39.8131 424.353 42.8183 424.353 46.1721C424.353 49.5258 423.591 52.5311 422.067 55.1879C420.586 57.8447 418.517 59.9354 415.86 61.4598C413.203 62.9406 410.22 63.6811 406.91 63.6811ZM406.91 59.5651C409.349 59.5651 411.527 59.0207 413.443 57.9318C415.403 56.7994 416.927 55.2097 418.016 53.1626C419.105 51.1155 419.65 48.7853 419.65 46.1721C419.65 43.5588 419.105 41.2286 418.016 39.1815C416.927 37.1344 415.403 35.5665 413.443 34.4776C411.527 33.3452 409.349 32.779 406.91 32.779C404.471 32.779 402.271 33.3452 400.311 34.4776C398.395 35.5665 396.87 37.1344 395.738 39.1815C394.649 41.2286 394.105 43.5588 394.105 46.1721C394.105 48.7853 394.649 51.1155 395.738 53.1626C396.87 55.2097 398.395 56.7994 400.311 57.9318C402.271 59.0207 404.471 59.5651 406.91 59.5651Z" fill="#173134"/>
<path d="M463.223 14.8779V63.3544H458.78V56.5599C457.387 58.8683 455.536 60.6322 453.227 61.8518C450.962 63.0713 448.393 63.6811 445.518 63.6811C442.295 63.6811 439.377 62.9406 436.763 61.4598C434.15 59.9789 432.103 57.9101 430.622 55.2532C429.141 52.5964 428.401 49.5693 428.401 46.1721C428.401 42.7748 429.141 39.7477 430.622 37.0909C432.103 34.434 434.15 32.387 436.763 30.9497C439.377 29.4688 442.295 28.7284 445.518 28.7284C448.306 28.7284 450.81 29.3163 453.031 30.4923C455.296 31.6248 457.147 33.3016 458.584 35.5229V14.8779H463.223ZM445.91 59.5651C448.306 59.5651 450.461 59.0207 452.378 57.9318C454.338 56.7994 455.862 55.2097 456.951 53.1626C458.084 51.1155 458.65 48.7853 458.65 46.1721C458.65 43.5588 458.084 41.2286 456.951 39.1815C455.862 37.1344 454.338 35.5665 452.378 34.4776C450.461 33.3452 448.306 32.779 445.91 32.779C443.471 32.779 441.271 33.3452 439.311 34.4776C437.395 35.5665 435.871 37.1344 434.738 39.1815C433.649 41.2286 433.105 43.5588 433.105 46.1721C433.105 48.7853 433.649 51.1155 434.738 53.1626C435.871 55.2097 437.395 56.7994 439.311 57.9318C441.271 59.0207 443.471 59.5651 445.91 59.5651Z" fill="#173134"/>
<path d="M504.104 47.6094H475.357C475.619 51.1809 476.991 54.0772 479.473 56.2985C481.956 58.4763 485.092 59.5651 488.881 59.5651C491.015 59.5651 492.975 59.1949 494.761 58.4545C496.547 57.6705 498.093 56.5381 499.4 55.0572L502.013 58.0625C500.489 59.8918 498.572 61.2856 496.264 62.2438C493.999 63.202 491.495 63.6811 488.751 63.6811C485.223 63.6811 482.087 62.9406 479.343 61.4598C476.642 59.9354 474.53 57.8447 473.005 55.1879C471.481 52.5311 470.719 49.5258 470.719 46.1721C470.719 42.8183 471.438 39.8131 472.875 37.1562C474.356 34.4994 476.359 32.4305 478.885 30.9497C481.455 29.4688 484.33 28.7284 487.509 28.7284C490.689 28.7284 493.542 29.4688 496.068 30.9497C498.594 32.4305 500.576 34.4994 502.013 37.1562C503.45 39.7695 504.169 42.7748 504.169 46.1721L504.104 47.6094ZM487.509 32.7136C484.199 32.7136 481.412 33.7807 479.147 35.9149C476.925 38.0055 475.662 40.7495 475.357 44.1468H499.726C499.421 40.7495 498.137 38.0055 495.872 35.9149C493.65 33.7807 490.863 32.7136 487.509 32.7136Z" fill="#173134"/>
<path d="M511.651 14.8779H516.289V63.3544H511.651V14.8779Z" fill="#173134"/>
<path d="M536.448 63.6811C533.66 63.6811 530.982 63.2891 528.412 62.5051C525.886 61.6776 523.904 60.654 522.467 59.4345L524.557 55.7759C525.994 56.9083 527.802 57.8447 529.98 58.5852C532.158 59.282 534.422 59.6305 536.774 59.6305C539.91 59.6305 542.219 59.1514 543.7 58.1932C545.224 57.1914 545.986 55.7977 545.986 54.0119C545.986 52.7488 545.572 51.7688 544.745 51.072C543.917 50.3315 542.872 49.7871 541.609 49.4387C540.346 49.0467 538.669 48.6765 536.578 48.328C533.791 47.8054 531.548 47.2827 529.849 46.76C528.15 46.1938 526.691 45.2574 525.472 43.9508C524.296 42.6441 523.708 40.8366 523.708 38.5282C523.708 35.6536 524.906 33.3016 527.301 31.4723C529.697 29.643 533.029 28.7284 537.297 28.7284C539.518 28.7284 541.74 29.0332 543.961 29.643C546.182 30.2092 548.011 30.9714 549.449 31.9296L547.423 35.6536C544.592 33.6936 541.217 32.7136 537.297 32.7136C534.335 32.7136 532.092 33.2363 530.568 34.2816C529.087 35.3269 528.346 36.6989 528.346 38.3975C528.346 39.7042 528.76 40.7495 529.588 41.5335C530.459 42.3175 531.526 42.9054 532.789 43.2974C534.052 43.6459 535.794 44.0161 538.016 44.4081C540.76 44.9307 542.959 45.4534 544.614 45.9761C546.269 46.4987 547.685 47.3916 548.861 48.6547C550.037 49.9178 550.625 51.66 550.625 53.8812C550.625 56.8865 549.362 59.282 546.835 61.0678C544.353 62.81 540.89 63.6811 536.448 63.6811Z" fill="#173134"/>
<path fill-rule="evenodd" clip-rule="evenodd" d="M34.6207 7.94574L6.88121 23.9611V55.992L13.8135 59.9943L13.8135 46.0386H19.384L19.384 63.2105L25.6096 66.8048L25.6096 42.1064H31.1801V70.021L34.6207 72.0074L37.4058 70.3994V35.2254H42.9763L42.9763 67.1833L49.2023 63.5887V27.0333H54.7729L54.7729 60.3725L62.3602 55.992V23.9611L34.6207 7.94574ZM69.2414 19.9883L34.6207 0L0 19.9883V59.9648L34.6207 79.9531L69.2414 59.9648V19.9883Z" fill="#FF5C00"/>
</svg>
